<?xml version="1.0" encoding="utf-8"?>
<!-- Generator: Adobe Illustrator 17.1.0, SVG Export Plug-In . SVG Version: 6.00 Build 0)  -->
<!DOCTYPE svg PUBLIC "-//W3C//DTD SVG 1.1//EN" "http://www.w3.org/Graphics/SVG/1.1/DTD/svg11.dtd" [
	<!ENTITY ns_extend "http://ns.adobe.com/Extensibility/1.0/">
	<!ENTITY ns_ai "http://ns.adobe.com/AdobeIllustrator/10.0/">
	<!ENTITY ns_graphs "http://ns.adobe.com/Graphs/1.0/">
	<!ENTITY ns_vars "http://ns.adobe.com/Variables/1.0/">
	<!ENTITY ns_imrep "http://ns.adobe.com/ImageReplacement/1.0/">
	<!ENTITY ns_sfw "http://ns.adobe.com/SaveForWeb/1.0/">
	<!ENTITY ns_custom "http://ns.adobe.com/GenericCustomNamespace/1.0/">
	<!ENTITY ns_adobe_xpath "http://ns.adobe.com/XPath/1.0/">
]>
<svg version="1.1" id="图层_1" xmlns:x="&ns_extend;" xmlns:i="&ns_ai;" xmlns:graph="&ns_graphs;"
	 xmlns="http://www.w3.org/2000/svg" xmlns:xlink="http://www.w3.org/1999/xlink" x="0px" y="0px" width="100px" height="100px"
	 viewBox="0 0 100 100" enable-background="new 0 0 100 100" xml:space="preserve">
<metadata>
	<sfw  xmlns="&ns_sfw;">
		<slices></slices>
		<sliceSourceBounds  height="100" width="100" y="-100" x="0" bottomLeftOrigin="true"></sliceSourceBounds>
	</sfw>
</metadata>
<rect opacity="0.4" fill="#969696" width="100" height="100"/>
<path opacity="0.6" fill="#FFFFFF" d="M59.476,28.328c-1.584-1.584-2.455-3.688-2.455-5.926c0-4.621,3.76-8.381,8.381-8.381
	s8.381,3.76,8.381,8.381c0,2.239-0.871,4.344-2.455,5.926c-0.297,0.298-0.78,0.298-1.077,0c-0.298-0.298-0.298-0.78,0-1.077
	c1.295-1.295,2.007-3.017,2.007-4.849c0-3.781-3.076-6.858-6.857-6.858c-3.781,0-6.858,3.076-6.858,6.858
	c0,1.831,0.714,3.553,2.009,4.849c0.298,0.298,0.298,0.78,0,1.077c-0.149,0.149-0.344,0.222-0.539,0.222
	C59.819,28.55,59.625,28.476,59.476,28.328z M68.364,26.441c0.149,0.149,0.344,0.222,0.539,0.222s0.39-0.075,0.539-0.224
	c1.08-1.08,1.675-2.515,1.675-4.039c0-3.151-2.564-5.714-5.714-5.714c-3.15,0-5.714,2.564-5.714,5.714
	c0,1.524,0.595,2.959,1.675,4.039c0.297,0.298,0.78,0.298,1.077,0c0.297-0.298,0.297-0.78,0-1.078
	c-0.792-0.792-1.229-1.844-1.229-2.961c0-2.31,1.88-4.19,4.19-4.19s4.19,1.88,4.19,4.19c0,1.117-0.436,2.169-1.229,2.961
	C68.066,25.661,68.066,26.144,68.364,26.441z M58.622,52.939l13.035-18.02l-0.961-1.882h-1.5c-1.495-0.195-2.651-1.47-2.651-3.019
	v-5.21c0.899-0.429,1.524-1.345,1.524-2.405c0-1.47-1.196-2.666-2.666-2.666c-1.47,0-2.666,1.196-2.666,2.666
	c0,1.061,0.625,1.976,1.524,2.405v5.21c0,1.549-1.156,2.824-2.651,3.019H47.125l4.509-6.926l-0.998-1.839H37.594L22.065,46.836
	l0.979,1.861h12.978l6.638-9.646h8.725l-25.59,37.57l0.982,1.857h13.371l10.211-14.116l10.029,14.116h14.08l0.967-1.875
	L58.622,52.939z"/>
</svg>
